<?xml version="1.0" encoding="utf-8"?>
<!-- Generator: Adobe Illustrator 22.0.0, SVG Export Plug-In . SVG Version: 6.00 Build 0)  -->
<svg version="1.1" id="Слой_1" xmlns="http://www.w3.org/2000/svg" xmlns:xlink="http://www.w3.org/1999/xlink" x="0px" y="0px"
	 viewBox="0 0 324 328.5" style="enable-background:new 0 0 324 328.5;" xml:space="preserve">
<style type="text/css">
	.st0{fill:#AAAAAA;}
</style>
<g>
	<polygon class="st0" points="6.2,152.7 6.2,152.7 6.2,152.7 	"/>
	<path class="st0" d="M318,172.2v-19.5l-16-5c-0.7-1.9-1.5-10-2.1-12.8c-0.8-3.7-2.5-8.9-2.9-12.2l12.8-10.8l-7.4-18l-16.7,1.4
		l-10.5-15.9c-1-1.4-3.1-3.8-3.8-5.1l7.8-15l-13.8-13.8l-15.2,7.8c-6.9-5.3-13.2-9.7-21-14l1.6-17.1l-18-7.4L201.6,28
		c-5.8-2.4-18.3-4.3-24.7-5l-5.1-16.5h-19.5L147.3,23c-6.5,0.7-18.7,2.5-24.7,5l-11.2-13.2l-18,7.4L95,39.2c-7.7,4.3-14.2,8.7-21,14
		l-15.2-7.8L45,59.2l7.8,15C52.1,75.5,50,78,49,79.4L38.5,95.3l-16.7-1.4l-7.4,18l12.8,10.8c-0.5,3.4-2.1,8.1-2.9,11.9
		c-0.8,4-1.2,9.2-2.1,12.8c-1.7,1.3-13,4.3-16.1,5.3v19.5l16,5c0.4,6.3,2.7,19.1,4.9,25l-12.7,10.9l7.4,18l16.3-1.4
		c1.4,1.5,5.2,8.5,6.8,10.9c1.9,2.8,5.4,8.1,7.6,10.3L45,265.7l13.7,13.8l14.7-7.6c11.4,8.4,9.3,6.9,21.3,14.5l-1.3,16.4l18,7.3
		l10.4-12.4c4,0.8,8.1,2.1,12.3,3c3.7,0.7,10.2,1.3,13.3,2.2l4.8,15.5h19.6l4.8-15.4c3-0.9,9.7-1.5,13.3-2.2
		c2.7-0.5,10.6-2.9,12.5-2.9l10.1,12.4l18-7.4l-1.4-16.2c3.6-2.3,7.4-4.4,11.1-6.8c3.6-2.5,6.9-5.2,10.3-7.6l14.7,7.5l13.8-13.7
		l-7.7-14.8c2.4-2.4,5.8-7.5,7.7-10.4c1.7-2.5,5.3-9.3,6.8-11l16.3,1.5l7.3-18l-12.8-10.8c2.2-5.2,4.6-19.4,5-25.2L318,172.2z
		 M162.1,273.1c-61.1,0-110.6-49.5-110.6-110.6S101,51.8,162.1,51.8c61.1,0,110.6,49.5,110.6,110.6S223.2,273.1,162.1,273.1z"/>
</g>
<path class="st0" d="M260.5,161.7c-0.4-2.4-3.2-4.5-6.6-4.9c-2.3-0.3-16.6,1.7-16.6,1.7c-1.1-0.1-2.2-0.3-3.2-0.7l-1.6-0.6
	c0,0,0,0.1,0,0.1c-1.1-15.7-7.3-30-17-41.2l0.8-1.6c0.4-0.9,1-1.8,1.7-2.7c0,0,10.8-8.3,12.1-9.6c3.3-3.3,4-8.1,1.2-10.1
	c-2-1.4-5.4-0.9-8.1,1.3c-1.8,1.5-10.5,12.9-10.5,12.9c-0.8,0.7-1.8,1.3-2.7,1.7l-1.6,0.7c0,0,0,0,0,0c-11.2-9.7-25.4-15.9-41.1-17
	l-0.6-1.7c-0.3-1-0.6-2-0.7-3.1c0,0,1.8-13.5,1.8-15.3c0-4.7-2.9-8.5-6.3-7.9c-2.4,0.4-4.5,3.2-4.9,6.6c-0.3,2.3,1.7,16.6,1.7,16.6
	c-0.1,1.1-0.3,2.2-0.7,3.2l-0.6,1.6c0.1,0,0.2,0,0.2,0c-15.8,1.1-30.1,7.3-41.3,17.1l-1.6-0.8c-0.9-0.4-1.8-1-2.7-1.7
	c0,0-8.3-10.8-9.6-12.1c-3.3-3.3-8.1-4-10.1-1.2c-1.4,2-0.9,5.4,1.3,8.1c1.5,1.8,12.9,10.5,12.9,10.5c0.7,0.8,1.3,1.8,1.7,2.7
	l0.7,1.6c0,0,0,0,0,0c-9.7,11.2-15.9,25.4-17,41.1L90,158c-1,0.3-2,0.6-3.1,0.7c0,0-13.5-1.8-15.3-1.8c-4.7,0-8.5,2.9-7.9,6.3
	c0.4,2.4,3.2,4.5,6.6,4.9c2.3,0.3,16.6-1.7,16.6-1.7c1.1,0.1,2.2,0.3,3.2,0.7l1.6,0.6c0,0,0-0.1,0-0.1c1.1,15.7,7.3,30,17,41.2
	l-0.8,1.6c-0.4,0.9-1,1.8-1.7,2.7c0,0-10.8,8.3-12.1,9.6c-3.3,3.3-4,8.1-1.2,10.1c2,1.4,5.4,0.9,8.1-1.3
	c1.8-1.5,10.5-12.9,10.5-12.9c0.8-0.7,1.8-1.3,2.7-1.7l1.6-0.7c11.2,9.7,25.4,15.9,41.1,17l0.6,1.7c0.3,1,0.6,2,0.7,3.1
	c0,0-1.8,13.5-1.8,15.3c0,4.7,2.9,8.5,6.3,7.9c2.4-0.4,4.5-3.2,4.9-6.6c0.3-2.3-1.7-16.6-1.7-16.6c0.1-1.1,0.3-2.2,0.7-3.2l0.6-1.6
	c0,0,0,0,0,0c15.7-1.1,29.9-7.3,41.1-17l1.6,0.8c0.9,0.4,1.8,1,2.7,1.7c0,0,8.3,10.8,9.6,12.1c3.3,3.3,8.1,4,10.1,1.2
	c1.4-2,0.9-5.4-1.3-8.1c-1.5-1.8-12.9-10.5-12.9-10.5c-0.7-0.8-1.3-1.8-1.7-2.7l-0.7-1.6c9.7-11.2,15.9-25.4,17-41.1l1.7-0.6
	c1-0.3,2-0.6,3.1-0.7c0,0,13.5,1.8,15.3,1.8C257.2,168,261,165.1,260.5,161.7z M196,123.9c-1.1,0.7-1.4,2.2-0.7,3l0,0l-0.1-0.1
	c-0.7-0.7-2.1-0.4-3,0.6l-18,19.4c-0.6,0.6-0.8,1.4-0.8,2l-0.3,0.3c-2.6-2.2-5.9-3.6-9.5-3.9v-0.4c0.5-0.4,0.9-1.1,0.9-2l1-26.5
	c0-1.4-0.7-2.5-1.7-2.5h-0.1v0c1.1,0,1.9-1.3,1.6-2.6l-0.6-3.2c13,0.6,24.9,5.8,33.9,14.1L196,123.9z M162.1,172
	c-5.3,0-9.5-4.3-9.5-9.5c0-5.3,4.3-9.5,9.5-9.5c5.3,0,9.5,4.3,9.5,9.5C171.6,167.7,167.3,172,162.1,172z M160.4,113.8L160.4,113.8
	l-0.1,0c-1,0-1.8,1.1-1.7,2.5l1,26.5c0,0.9,0.4,1.6,0.9,2v0.4c-3.6,0.3-6.9,1.8-9.5,3.9l-0.3-0.3c0.1-0.6-0.2-1.4-0.8-2l-18-19.4
	c-0.9-1-2.3-1.3-3-0.6l-0.1,0.1l0,0c0.7-0.8,0.4-2.2-0.7-3l-2.7-1.9c9.1-8.2,20.9-13.4,33.9-14.1l-0.6,3.2
	C158.6,112.5,159.4,113.7,160.4,113.8z M121.7,125.8l1.9,2.7c0.7,1.1,2.2,1.4,3,0.7l0,0l-0.1,0.1c-0.7,0.7-0.4,2.1,0.6,3l19.4,18
	c0.6,0.6,1.4,0.8,2,0.8l0.3,0.3c-2.2,2.6-3.6,5.9-3.9,9.5h-0.4c-0.4-0.5-1.1-0.9-2-0.9l-26.5-1c-1.4,0-2.5,0.7-2.5,1.7v0.1h0
	c0-1.1-1.3-1.9-2.6-1.6l-3.2,0.6C108.2,146.7,113.5,134.9,121.7,125.8z M110.8,165.7c1.3,0.2,2.5-0.6,2.6-1.6h0v0.1
	c0,1,1.1,1.8,2.5,1.7l26.5-1c0.9,0,1.6-0.4,2-0.9h0.4c0.3,3.6,1.8,6.9,3.9,9.5l-0.3,0.3c-0.6-0.1-1.4,0.2-2,0.8l-19.4,18
	c-1,0.9-1.3,2.3-0.6,3l0.1,0.1l0,0c-0.8-0.7-2.2-0.4-3,0.7l-1.9,2.7c-8.2-9.1-13.4-20.9-14.1-33.9L110.8,165.7z M128.1,201
	c1.1-0.7,1.4-2.2,0.7-2.9l0,0l0.1,0.1c0.7,0.7,2.1,0.4,3-0.6l18-19.4c0.6-0.6,0.8-1.4,0.8-2l0.3-0.3c2.6,2.2,5.9,3.6,9.5,3.9v0.4
	c-0.5,0.4-0.9,1.1-0.9,2l-1,26.5c0,1.4,0.7,2.5,1.7,2.5h0.1v0c-1.1,0-1.9,1.3-1.6,2.6l0.6,3.2c-13-0.6-24.9-5.9-33.9-14.1L128.1,201
	z M163.7,211.1L163.7,211.1l0.1,0c1,0,1.8-1.1,1.7-2.5l-1-26.5c0-0.9-0.4-1.6-0.9-2v-0.4c3.6-0.3,6.9-1.8,9.5-3.9l0.3,0.3
	c-0.1,0.6,0.2,1.4,0.8,2l18,19.4c0.9,1,2.3,1.3,3,0.6l0.1-0.1l0,0c-0.7,0.8-0.4,2.2,0.7,3l2.7,1.9c-9.1,8.2-20.9,13.4-33.9,14.1
	l0.6-3.3C165.5,212.4,164.8,211.2,163.7,211.1z M202.5,199.1l-1.9-2.7c-0.7-1.1-2.2-1.4-3-0.7l0,0l0.1-0.1c0.7-0.7,0.4-2.1-0.6-3
	l-19.4-18c-0.6-0.6-1.4-0.8-2-0.8l-0.3-0.3c2.2-2.6,3.6-5.9,3.9-9.5h0.4c0.4,0.5,1.1,0.9,2,0.9l26.5,1c1.4,0,2.5-0.7,2.5-1.7v-0.1h0
	c0,1.1,1.3,1.9,2.6,1.6l3.3-0.6c0-0.2,0-0.4,0-0.5C216.1,177.8,210.8,189.9,202.5,199.1z M216.5,159.8l-3.3-0.6
	c-1.3-0.2-2.5,0.6-2.6,1.6h0v-0.1c0-1-1.1-1.8-2.5-1.7l-26.5,1c-0.9,0-1.6,0.4-2,0.9h-0.4c-0.3-3.6-1.8-6.9-3.9-9.5l0.3-0.3
	c0.6,0.1,1.4-0.2,2-0.8l19.4-18c1-0.9,1.3-2.3,0.6-3l-0.1-0.1l0,0c0.8,0.7,2.2,0.4,3-0.7l1.9-2.7c8.3,9.2,13.6,21.3,14.1,34.5
	C216.6,160.1,216.5,160,216.5,159.8z M202.3,119.9c-10.1-9.6-23.6-15.6-38.6-16v-2.2c15.5,0.4,29.6,6.7,40.1,16.6L202.3,119.9z
	 M160.4,104c-14.9,0.4-28.4,6.4-38.5,16l-1.5-1.5c10.5-10,24.6-16.2,40.1-16.6V104z M119.6,122.3c-9.6,10.1-15.6,23.6-16,38.5h-2.2
	c0.4-15.5,6.7-29.6,16.6-40.1L119.6,122.3z M103.6,164.1c0.4,14.9,6.4,28.4,16,38.5l-1.5,1.5c-10-10.5-16.2-24.6-16.6-40.1H103.6z
	 M121.9,204.9c10.1,9.6,23.6,15.6,38.5,16v2.2c-15.5-0.4-29.6-6.7-40.1-16.6L121.9,204.9z M163.7,220.9c14.9-0.4,28.4-6.4,38.6-16
	l1.5,1.5c-10.5,10-24.6,16.2-40.1,16.6V220.9z M204.6,202.6c9.6-10.1,15.6-23.6,16-38.6h2.2c-0.4,15.5-6.7,29.6-16.6,40.1
	L204.6,202.6z M220.5,160.8c-0.4-14.9-6.4-28.4-16-38.6l1.5-1.5c10,10.5,16.2,24.6,16.6,40.1H220.5z M213.8,114.5
	c-0.1-0.1-0.1-0.1-0.2-0.2C213.7,114.3,213.7,114.4,213.8,114.5z M211.9,112.5C211.9,112.5,211.9,112.5,211.9,112.5
	C211.9,112.5,211.9,112.5,211.9,112.5C211.9,112.5,211.9,112.5,211.9,112.5z M210.3,110.9c-0.1-0.1-0.3-0.2-0.4-0.4
	C210,110.7,210.2,110.8,210.3,110.9z M164.5,91.9c0.1,0,0.2,0,0.3,0C164.6,91.9,164.6,91.9,164.5,91.9z M162,91.9
	C162,91.9,162,91.9,162,91.9C162,91.9,162,91.9,162,91.9C162,91.9,162,91.9,162,91.9z M159.7,91.9c-0.2,0-0.4,0-0.6,0
	C159.4,91.9,159.5,91.9,159.7,91.9z M114.1,110.7c-0.1,0.1-0.1,0.1-0.2,0.2C114,110.8,114,110.8,114.1,110.7z M112.2,112.6
	C112.2,112.6,112.1,112.6,112.2,112.6C112.1,112.6,112.1,112.6,112.2,112.6C112.2,112.6,112.2,112.6,112.2,112.6z M110.6,114.2
	c-0.1,0.1-0.2,0.3-0.4,0.4C110.3,114.5,110.5,114.3,110.6,114.2z M91.6,159.8c0,0.1,0,0.1,0,0.2C91.6,159.9,91.6,159.9,91.6,159.8z
	 M91.6,164.8c0,0.2,0,0.3,0,0.5C91.6,165.1,91.6,165,91.6,164.8z M110.5,210.6C110.4,210.5,110.4,210.5,110.5,210.6
	C110.4,210.5,110.4,210.5,110.5,210.6z M113.9,214c0.1,0.1,0.2,0.2,0.3,0.3C114.1,214.2,114,214.1,113.9,214z M159.6,232.9
	C159.6,232.9,159.5,232.9,159.6,232.9C159.5,232.9,159.6,232.9,159.6,232.9z M164.5,232.9c0.1,0,0.2,0,0.4,0
	C164.7,232.9,164.6,232.9,164.5,232.9z M210.2,214C210.2,214.1,210.1,214.1,210.2,214C210.1,214.1,210.2,214.1,210.2,214z
	 M213.6,210.6c0.1-0.1,0.2-0.2,0.3-0.3C213.8,210.4,213.7,210.5,213.6,210.6z M232.6,164.9c0,0.1,0,0.1,0,0.2
	C232.6,165,232.6,164.9,232.6,164.9z M232.6,159.6c0,0.2,0,0.3,0,0.5C232.6,159.9,232.6,159.8,232.6,159.6z"/>
</svg>
